HIERARCHY
ROOT hip
{
  OFFSET 5.70873 43.8894 -1.52928
  CHANNELS 6 Xposition Yposition Zposition Zrotation Xrotation Yrotation
  JOINT abdomen
  {
    OFFSET 0 5.99393 0.287273
    CHANNELS 6 Xposition Yposition Zposition Zrotation Xrotation Yrotation
    JOINT chest
    {
      OFFSET 0 6.65865 -0.856112
      CHANNELS 6 Xposition Yposition Zposition Zrotation Xrotation Yrotation
      JOINT neck
      {
        OFFSET 0 8.65624 -1.42685
        CHANNELS 6 Xposition Yposition Zposition Zrotation Xrotation Yrotation
        JOINT head
        {
          OFFSET 0 3.80999 -0.190247
          CHANNELS 6 Xposition Yposition Zposition Zrotation Xrotation Yrotation
          End Site
          {
            OFFSET 0 0 0
          }
        }
      }
      JOINT rCollar
      {
        OFFSET -1.4963 7.5744 -1.52136
        CHANNELS 6 Xposition Yposition Zposition Zrotation Xrotation Yrotation
        JOINT rShldr
        {
          OFFSET -5.47506 -0.905672 0.485692
          CHANNELS 6 Xposition Yposition Zposition Zrotation Xrotation Yrotation
          JOINT rForeArm
          {
            OFFSET -11.3069 -0.201091 0.618544
            CHANNELS 6 Xposition Yposition Zposition Zrotation Xrotation Yrotation
            JOINT rHand
            {
              OFFSET -9.61414 -0.254739 3.48553
              CHANNELS 6 Xposition Yposition Zposition Zrotation Xrotation Yrotation
              JOINT rThumb1
              {
                OFFSET 0.176263 -0.07068 1.26622
                CHANNELS 6 Xposition Yposition Zposition Zrotation Xrotation Yrotation
                JOINT rThumb2
                {
                  OFFSET -1.04683 -0.546484 1.82182
                  CHANNELS 6 Xposition Yposition Zposition Zrotation Xrotation Yrotation
                  JOINT rThumb3
                  {
                    OFFSET -0.993472 -0.621916 0.655506
                    CHANNELS 6 Xposition Yposition Zposition Zrotation Xrotation Yrotation
                    End Site
                    {
                      OFFSET -0.996134 -0.66263 0.644615
                    }
                  }
                }
              }
              JOINT rIndex1
              {
                OFFSET -2.64253 0.566363 2.4162
                CHANNELS 6 Xposition Yposition Zposition Zrotation Xrotation Yrotation
                JOINT rIndex2
                {
                  OFFSET -1.39394 -0.635138 0.899356
                  CHANNELS 6 Xposition Yposition Zposition Zrotation Xrotation Yrotation
                  JOINT rIndex3
                  {
                    OFFSET -0.622395 -0.856016 0.402182
                    CHANNELS 6 Xposition Yposition Zposition Zrotation Xrotation Yrotation
                    End Site
                    {
                      OFFSET -0.472476 -0.801802 0.34216
                    }
                  }
                }
              }
              JOINT rMid1
              {
                OFFSET -3.20814 0.514427 1.52547
                CHANNELS 6 Xposition Yposition Zposition Zrotation Xrotation Yrotation
                JOINT rMid2
                {
                  OFFSET -1.56545 -0.497974 0.68919
                  CHANNELS 6 Xposition Yposition Zposition Zrotation Xrotation Yrotation
                  JOINT rMid3
                  {
                    OFFSET -0.679943 -1.17582 0.444246
                    CHANNELS 6 Xposition Yposition Zposition Zrotation Xrotation Yrotation
                    End Site
                    {
                      OFFSET -0.343874 -0.941341 0.267611
                    }
                  }
                }
              }
              JOINT rRing1
              {
                OFFSET -3.47877 0.200518 0.597719
                CHANNELS 6 Xposition Yposition Zposition Zrotation Xrotation Yrotation
                JOINT rRing2
                {
                  OFFSET -1.28208 -0.53155 0.44672
                  CHANNELS 6 Xposition Yposition Zposition Zrotation Xrotation Yrotation
                  JOINT rRing3
                  {
                    OFFSET -0.710288 -0.970167 0.4032
                    CHANNELS 6 Xposition Yposition Zposition Zrotation Xrotation Yrotation
                    End Site
                    {
                      OFFSET -0.403228 -0.950952 0.378354
                    }
                  }
                }
              }
              JOINT rPinky1
              {
                OFFSET -3.42483 -0.278904 -0.240415
                CHANNELS 6 Xposition Yposition Zposition Zrotation Xrotation Yrotation
                JOINT rPinky2
                {
                  OFFSET -1.05787 -0.635999 0.156459
                  CHANNELS 6 Xposition Yposition Zposition Zrotation Xrotation Yrotation
                  JOINT rPinky3
                  {
                    OFFSET -0.42815 -0.754232 0.287187
                    CHANNELS 6 Xposition Yposition Zposition Zrotation Xrotation Yrotation
                    End Site
                    {
                      OFFSET -0.235717 -0.725605 0.279416
                    }
                  }
                }
              }
            }
          }
        }
      }
      JOINT lCollar
      {
        OFFSET 1.4963 7.5744 -1.52136
        CHANNELS 6 Xposition Yposition Zposition Zrotation Xrotation Yrotation
        JOINT lShldr
        {
          OFFSET 5.47506 -0.905672 0.485692
          CHANNELS 6 Xposition Yposition Zposition Zrotation Xrotation Yrotation
          JOINT lForeArm
          {
            OFFSET 11.3069 -0.201091 0.618544
            CHANNELS 6 Xposition Yposition Zposition Zrotation Xrotation Yrotation
            JOINT lHand
            {
              OFFSET 9.61414 -0.254739 3.48553
              CHANNELS 6 Xposition Yposition Zposition Zrotation Xrotation Yrotation
              JOINT lThumb1
              {
                OFFSET -0.176263 -0.07068 1.26622
                CHANNELS 6 Xposition Yposition Zposition Zrotation Xrotation Yrotation
                JOINT lThumb2
                {
                  OFFSET 1.04683 -0.546484 1.82182
                  CHANNELS 6 Xposition Yposition Zposition Zrotation Xrotation Yrotation
                  JOINT lThumb3
                  {
                    OFFSET 0.993472 -0.621916 0.655506
                    CHANNELS 6 Xposition Yposition Zposition Zrotation Xrotation Yrotation
                    End Site
                    {
                      OFFSET 0.996134 -0.66263 0.644615
                    }
                  }
                }
              }
              JOINT lIndex1
              {
                OFFSET 2.64253 0.566363 2.4162
                CHANNELS 6 Xposition Yposition Zposition Zrotation Xrotation Yrotation
                JOINT lIndex2
                {
                  OFFSET 1.39394 -0.635138 0.899356
                  CHANNELS 6 Xposition Yposition Zposition Zrotation Xrotation Yrotation
                  JOINT lIndex3
                  {
                    OFFSET 0.622395 -0.856016 0.402182
                    CHANNELS 6 Xposition Yposition Zposition Zrotation Xrotation Yrotation
                    End Site
                    {
                      OFFSET 0.472476 -0.801802 0.34216
                    }
                  }
                }
              }
              JOINT lMid1
              {
                OFFSET 3.20814 0.514427 1.52547
                CHANNELS 6 Xposition Yposition Zposition Zrotation Xrotation Yrotation
                JOINT lMid2
                {
                  OFFSET 1.56545 -0.497974 0.68919
                  CHANNELS 6 Xposition Yposition Zposition Zrotation Xrotation Yrotation
                  JOINT lMid3
                  {
                    OFFSET 0.679943 -1.17582 0.444246
                    CHANNELS 6 Xposition Yposition Zposition Zrotation Xrotation Yrotation
                    End Site
                    {
                      OFFSET 0.343874 -0.941341 0.267611
                    }
                  }
                }
              }
              JOINT lRing1
              {
                OFFSET 3.47877 0.200518 0.597719
                CHANNELS 6 Xposition Yposition Zposition Zrotation Xrotation Yrotation
                JOINT lRing2
                {
                  OFFSET 1.28208 -0.53155 0.44672
                  CHANNELS 6 Xposition Yposition Zposition Zrotation Xrotation Yrotation
                  JOINT lRing3
                  {
                    OFFSET 0.710288 -0.970167 0.4032
                    CHANNELS 6 Xposition Yposition Zposition Zrotation Xrotation Yrotation
                    End Site
                    {
                      OFFSET 0.403228 -0.950952 0.378354
                    }
                  }
                }
              }
              JOINT lPinky1
              {
                OFFSET 3.42483 -0.278904 -0.240415
                CHANNELS 6 Xposition Yposition Zposition Zrotation Xrotation Yrotation
                JOINT lPinky2
                {
                  OFFSET 1.05787 -0.635999 0.156459
                  CHANNELS 6 Xposition Yposition Zposition Zrotation Xrotation Yrotation
                  JOINT lPinky3
                  {
                    OFFSET 0.42815 -0.754232 0.287187
                    CHANNELS 6 Xposition Yposition Zposition Zrotation Xrotation Yrotation
                    End Site
                    {
                      OFFSET 0.235717 -0.725605 0.279416
                    }
                  }
                }
              }
            }
          }
        }
      }
    }
  }
  JOINT rThigh
  {
    OFFSET -4.17848 -1.02486 0.046356
    CHANNELS 6 Xposition Yposition Zposition Zrotation Xrotation Yrotation
    JOINT rShin
    {
      OFFSET 1.27155 -17.465 -0.237699
      CHANNELS 6 Xposition Yposition Zposition Zrotation Xrotation Yrotation
      JOINT rFoot
      {
        OFFSET 0.529163 -17.3815 -1.19582
        CHANNELS 6 Xposition Yposition Zposition Zrotation Xrotation Yrotation
        JOINT rToe
        {
          OFFSET -0.711591 -4.4863 4.0596
          CHANNELS 6 Xposition Yposition Zposition Zrotation Xrotation Yrotation
          End Site
          {
            OFFSET -0.869915 -1.10655 1.99006
          }
        }
      }
    }
  }
  JOINT lThigh
  {
    OFFSET 4.17848 -1.02486 0.046356
    CHANNELS 6 Xposition Yposition Zposition Zrotation Xrotation Yrotation
    JOINT lShin
    {
      OFFSET -1.27155 -17.465 -0.237699
      CHANNELS 6 Xposition Yposition Zposition Zrotation Xrotation Yrotation
      JOINT lFoot
      {
        OFFSET -0.529163 -17.3815 -1.19582
        CHANNELS 6 Xposition Yposition Zposition Zrotation Xrotation Yrotation
        JOINT lToe
        {
          OFFSET 0.711591 -4.4863 4.0596
          CHANNELS 6 Xposition Yposition Zposition Zrotation Xrotation Yrotation
          End Site
          {
            OFFSET 0.869915 -1.10655 1.99006
          }
        }
      }
    }
  }
}
MOTION
Frames:	4
Frame Time:	0.0333333
2.54744 43.1408 8.49907 -2.32294e-005 22.9876 -5.73147e-006 0 5.99393 0.287273 0.768683 -0.00571965 0.147912 0 6.65865 -0.856112 1.53738 -0.00944839 0.295887 0 8.65624 -1.42685 5.36274 -6.61095 1.10654 1.77636e-015 3.80999 -0.190247 5.35127 -6.66536 0.482583 -1.4963 7.5744 -1.52136 -2.75288 2.48177 -12.295 -5.47506 -0.905672 0.485692 67.0234 1.09759 -24.377 -11.3069 -0.201091 0.618544 60.4845 62.4798 -2.74973 -9.61414 -0.254739 3.48553 -26.7292 34.8349 6.72542 0.176263 -0.07068 1.26622 -7.36746 1.74295 -11.9994 -1.04683 -0.546484 1.82182 -0.218592 0.232532 -0.655862 -0.993472 -0.621916 0.655506 -2.27852 2.72366 -7.25745 -2.64253 0.566363 2.4162 5.18843 6.90115 -6.67875 -1.39394 -0.635138 0.899356 -1.2634 -0.338511 0.182505 -0.622395 -0.856016 0.402182 1.13676 0.301037 -0.170381 -3.20814 0.514427 1.52547 -6.01107 1.36873 0.943499 -1.56545 -0.497974 0.68919 -2.08093 -0.645019 0.284489 -0.679943 -1.17582 0.444246 -6.43296 -2.02778 0.804087 -3.47877 0.200518 0.597719 -10.91 -4.63032 1.77803 -1.28208 -0.53155 0.44672 -6.1794 -2.20188 1.01384 -0.710288 -0.970167 0.4032 -10.4595 -3.79148 1.57723 -3.42483 -0.278904 -0.240415 -10.0536 -5.87086 2.34383 -1.05787 -0.635999 0.156459 -8.35995 -3.23862 1.18206 -0.42815 -0.754232 0.287187 -10.1664 -3.96073 1.37519 1.4963 7.5744 -1.52136 2.74965 3.42238 12.3256 5.47506 -0.905672 0.485692 -75.983 12.8451 14.4476 11.3069 -0.201091 0.618544 -55.6232 58.307 -5.06366 9.61414 -0.254739 3.48553 8.5771 19.769 -13.8116 -0.176263 -0.07068 1.26622 2.74048 2.81275 9.9012 1.04683 -0.546484 1.82182 -1.10808 -0.30848 -1.96785 0.993472 -0.621916 0.655506 2.44897 0.830972 4.40251 2.64253 0.566363 2.4162 -14.5168 7.61107 13.936 1.39394 -0.635138 0.899356 -9.59116 2.84678 4.04115 0.622395 -0.856016 0.402182 -11.8722 3.41326 5.05551 3.20814 0.514427 1.52547 -9.57794 6.37397 5.36875 1.56545 -0.497974 0.68919 -13.5915 4.39942 5.92466 0.679943 -1.17582 0.444246 -9.43434 3.2211 4.02482 3.47877 0.200518 0.597719 -8.55939 2.70015 3.62365 1.28208 -0.53155 0.44672 -12.9847 4.63904 6.35772 0.710288 -0.970167 0.4032 -8.9061 3.3592 4.27677 3.42483 -0.278904 -0.240415 -9.39315 2.50755 2.57643 1.05787 -0.635999 0.156459 -10.7808 4.32817 5.14798 0.42815 -0.754232 0.287187 -9.06223 3.71494 4.28684 -4.17848 -1.02486 0.046356 -5.51692 -28.8866 29.6051 1.27155 -17.465 -0.237699 3.41809 21.5104 2.69347 0.529163 -17.3815 -1.19582 4.75747 -19.3359 3.64821 -0.711591 -4.4863 4.0596 0.000143236 -1.78597e-005 3.09081e-006 4.17848 -1.02486 0.046356 -5.35528 -32.3285 -25.064 -1.27155 -17.465 -0.237699 0.140521 27.1887 -3.07799 -0.529163 -17.3815 -1.19582 4.42071 -16.9882 -0.215844 0.711591 -4.4863 4.0596 2.50402e-005 -1.62737e-005 1.35138e-005 
2.5547 43.2284 8.53321 -0.637072 20.862 0.168424 4.44089e-016 5.99393 0.287273 0.998555 0.438095 0.253403 0 6.65865 -0.856112 1.99526 0.880487 0.499155 0 8.65624 -1.42685 4.71682 -5.3795 0.244681 3.55271e-015 3.80999 -0.190247 4.63522 -5.58248 -0.433832 -1.4963 7.5744 -1.52136 -2.78917 2.50401 -12.2769 -5.47506 -0.905672 0.485692 67.0535 1.76651 -22.6037 -11.3069 -0.201091 0.618544 61.5495 62.8458 -3.08299 -9.61414 -0.254739 3.48553 -25.0768 32.5489 4.25152 0.176263 -0.07068 1.26622 -7.36745 1.74296 -11.9994 -1.04683 -0.546484 1.82182 -0.218602 0.232535 -0.655862 -0.993472 -0.621916 0.655506 -2.27851 2.72368 -7.25746 -2.64253 0.566363 2.4162 5.18844 6.90114 -6.67874 -1.39394 -0.635138 0.899356 -1.2634 -0.338508 0.182496 -0.622395 -0.856016 0.402182 1.13676 0.301052 -0.170367 -3.20814 0.514427 1.52547 -6.01106 1.36872 0.943493 -1.56545 -0.497974 0.68919 -2.08092 -0.645025 0.284501 -0.679943 -1.17582 0.444246 -6.43295 -2.02779 0.804097 -3.47877 0.200518 0.597719 -10.91 -4.63033 1.77803 -1.28208 -0.53155 0.44672 -6.1794 -2.20188 1.01384 -0.710288 -0.970167 0.4032 -10.4595 -3.79148 1.57724 -3.42483 -0.278904 -0.240415 -10.0536 -5.87086 2.34383 -1.05787 -0.635999 0.156459 -8.35995 -3.23862 1.18206 -0.42815 -0.754232 0.287187 -10.1664 -3.96072 1.3752 1.4963 7.5744 -1.52136 2.74905 3.42233 12.3255 5.47506 -0.905672 0.485692 -76.3189 13.9174 12.4855 11.3069 -0.201091 0.618544 -55.7814 58.3831 -4.88663 9.61414 -0.254739 3.48553 7.74727 17.1929 -12.7528 -0.176263 -0.07068 1.26622 2.74048 2.81273 9.90119 1.04683 -0.546484 1.82182 -1.10807 -0.30847 -1.96785 0.993472 -0.621916 0.655506 2.44897 0.830968 4.40251 2.64253 0.566363 2.4162 -14.5168 7.61105 13.936 1.39394 -0.635138 0.899356 -9.59115 2.84678 4.04115 0.622395 -0.856016 0.402182 -11.8722 3.41327 5.05551 3.20814 0.514427 1.52547 -9.57796 6.37396 5.36875 1.56545 -0.497974 0.68919 -13.5915 4.39942 5.92467 0.679943 -1.17582 0.444246 -9.43434 3.2211 4.02482 3.47877 0.200518 0.597719 -8.55939 2.70016 3.62365 1.28208 -0.53155 0.44672 -12.9847 4.63903 6.35773 0.710288 -0.970167 0.4032 -8.90611 3.35919 4.27679 3.42483 -0.278904 -0.240415 -9.3934 2.50723 2.57635 1.05787 -0.635999 0.156459 -10.7808 4.32815 5.14798 0.42815 -0.754232 0.287187 -9.06185 3.71538 4.2868 -4.17848 -1.02486 0.046356 -5.22503 -25.7402 29.5397 1.27155 -17.465 -0.237699 3.18619 19.5051 2.97561 0.529163 -17.3815 -1.19582 4.73831 -18.4166 3.72019 -0.711591 -4.4863 4.0596 -0.00629786 -0.0345392 -0.000202154 4.17848 -1.02486 0.046356 -4.42868 -29.8924 -24.634 -1.27155 -17.465 -0.237699 0.0858339 26.6494 -3.06601 -0.529163 -17.3815 -1.19582 4.46296 -16.8086 -0.259312 0.711591 -4.4863 4.0596 2.092e-005 -2.95224e-005 1.5649e-005 
2.58138 43.3164 8.62489 -1.46788 18.0801 0.104631 0 5.99393 0.287273 1.32005 1.02704 0.332533 0 6.65865 -0.856112 2.63476 2.06142 0.641466 -8.88178e-016 8.65624 -1.42685 3.80882 -3.82245 -1.33542 0 3.80999 -0.190247 3.58505 -4.36629 -2.09355 -1.4963 7.5744 -1.52136 -2.80692 2.51506 -12.269 -5.47506 -0.905672 0.485692 66.6163 2.45345 -20.413 -11.3069 -0.201091 0.618544 63.6472 63.5109 -4.19666 -9.61414 -0.254739 3.48553 -23.161 29.8311 1.4153 0.176263 -0.07068 1.26622 -7.36744 1.74296 -11.9994 -1.04683 -0.546484 1.82182 -0.218613 0.232528 -0.655853 -0.993472 -0.621916 0.655506 -2.27853 2.72367 -7.25745 -2.64253 0.566363 2.4162 5.18843 6.90115 -6.67874 -1.39394 -0.635138 0.899356 -1.26341 -0.338518 0.18251 -0.622395 -0.856016 0.402182 1.13675 0.301044 -0.170377 -3.20814 0.514427 1.52547 -6.01107 1.36872 0.943501 -1.56545 -0.497974 0.68919 -2.08094 -0.645029 0.284486 -0.679943 -1.17582 0.444246 -6.43294 -2.02778 0.804105 -3.47877 0.200518 0.597719 -10.91 -4.63034 1.77804 -1.28208 -0.53155 0.44672 -6.17938 -2.20187 1.01385 -0.710288 -0.970167 0.4032 -10.4595 -3.79149 1.57724 -3.42483 -0.278904 -0.240415 -10.0536 -5.87087 2.34384 -1.05787 -0.635999 0.156459 -8.35995 -3.23863 1.18207 -0.42815 -0.754232 0.287187 -10.1664 -3.96073 1.37519 1.4963 7.5744 -1.52136 2.74894 3.42223 12.3255 5.47506 -0.905672 0.485692 -76.879 14.8807 10.432 11.3069 -0.201091 0.618544 -56.052 58.5175 -4.38361 9.61414 -0.254739 3.48553 6.9875 14.0915 -11.7651 -0.176263 -0.07068 1.26622 2.74046 2.81273 9.9012 1.04683 -0.546484 1.82182 -1.10806 -0.308475 -1.96785 0.993472 -0.621916 0.655506 2.44897 0.830971 4.40251 2.64253 0.566363 2.4162 -14.5168 7.61104 13.936 1.39394 -0.635138 0.899356 -9.59115 2.84677 4.04115 0.622395 -0.856016 0.402182 -11.8721 3.41326 5.0555 3.20814 0.514427 1.52547 -9.57795 6.37396 5.36875 1.56545 -0.497974 0.68919 -13.5915 4.39941 5.92467 0.679943 -1.17582 0.444246 -9.43434 3.2211 4.02485 3.47877 0.200518 0.597719 -8.55939 2.70016 3.62365 1.28208 -0.53155 0.44672 -12.9847 4.63903 6.35772 0.710288 -0.970167 0.4032 -8.9061 3.35918 4.2768 3.42483 -0.278904 -0.240415 -9.39364 2.50694 2.57625 1.05787 -0.635999 0.156459 -10.7808 4.32815 5.14799 0.42815 -0.754232 0.287187 -9.06146 3.71581 4.28675 -4.17848 -1.02486 0.046356 -4.78364 -21.6354 29.5101 1.27155 -17.465 -0.237699 2.98587 16.9691 3.53468 0.529163 -17.3815 -1.19582 4.42364 -17.2956 3.98318 -0.711591 -4.4863 4.0596 -0.0232882 -0.1256 -0.00076872 4.17848 -1.02486 0.046356 -3.3276 -26.7065 -24.1943 -1.27155 -17.465 -0.237699 0.0854181 26.2501 -2.91819 -0.529163 -17.3815 -1.19582 4.55206 -16.8056 -0.177906 0.711591 -4.4863 4.0596 1.91294e-005 -2.22057e-005 2.5368e-005 
2.62358 43.4009 8.76268 -2.41445 14.9299 -0.185687 -3.33067e-016 5.99393 0.287273 1.69061 1.69036 0.383116 0 6.65865 -0.856112 3.37209 3.39124 0.716618 0 8.65624 -1.42685 2.74939 -2.04192 -3.41177 1.77636e-015 3.80999 -0.190247 2.34147 -3.04789 -4.2837 -1.4963 7.5744 -1.52136 -2.81084 2.51799 -12.2682 -5.47506 -0.905672 0.485692 65.8191 3.13022 -17.9598 -11.3069 -0.201091 0.618544 66.6142 64.3468 -6.00813 -9.61414 -0.254739 3.48553 -21.2241 26.7964 -1.46474 0.176263 -0.07068 1.26622 -7.36745 1.74296 -11.9994 -1.04683 -0.546484 1.82182 -0.218629 0.232551 -0.655851 -0.993472 -0.621916 0.655506 -2.27852 2.72368 -7.25745 -2.64253 0.566363 2.4162 5.18842 6.90117 -6.67874 -1.39394 -0.635138 0.899356 -1.2634 -0.338488 0.182514 -0.622395 -0.856016 0.402182 1.13675 0.301049 -0.170381 -3.20814 0.514427 1.52547 -6.01107 1.36873 0.943511 -1.56545 -0.497974 0.68919 -2.08092 -0.645012 0.2845 -0.679943 -1.17582 0.444246 -6.43295 -2.0278 0.804095 -3.47877 0.200518 0.597719 -10.91 -4.63032 1.77804 -1.28208 -0.53155 0.44672 -6.17939 -2.20188 1.01385 -0.710288 -0.970167 0.4032 -10.4595 -3.79147 1.57726 -3.42483 -0.278904 -0.240415 -10.0536 -5.87084 2.34383 -1.05787 -0.635999 0.156459 -8.35995 -3.23862 1.18207 -0.42815 -0.754232 0.287187 -10.1664 -3.96071 1.3752 1.4963 7.5744 -1.52136 2.74918 3.42241 12.3255 5.47506 -0.905672 0.485692 -77.5875 15.7824 8.39795 11.3069 -0.201091 0.618544 -56.4143 58.6969 -3.654 9.61414 -0.254739 3.48553 6.35705 10.6458 -10.897 -0.176263 -0.07068 1.26622 2.74045 2.8127 9.9012 1.04683 -0.546484 1.82182 -1.10807 -0.308472 -1.96786 0.993472 -0.621916 0.655506 2.44897 0.830951 4.40252 2.64253 0.566363 2.4162 -14.5168 7.61102 13.936 1.39394 -0.635138 0.899356 -9.59116 2.84677 4.04114 0.622395 -0.856016 0.402182 -11.8722 3.41324 5.05551 3.20814 0.514427 1.52547 -9.57795 6.37396 5.36874 1.56545 -0.497974 0.68919 -13.5915 4.39939 5.92468 0.679943 -1.17582 0.444246 -9.43434 3.2211 4.02486 3.47877 0.200518 0.597719 -8.55938 2.70014 3.62363 1.28208 -0.53155 0.44672 -12.9847 4.63901 6.35773 0.710288 -0.970167 0.4032 -8.9061 3.35918 4.27682 3.42483 -0.278904 -0.240415 -9.39386 2.50664 2.57614 1.05787 -0.635999 0.156459 -10.7808 4.32813 5.14798 0.42815 -0.754232 0.287187 -9.06107 3.71626 4.28672 -4.17848 -1.02486 0.046356 -4.32679 -16.9445 29.448 1.27155 -17.465 -0.237699 2.83255 14.0156 4.275 0.529163 -17.3815 -1.19582 3.89007 -15.9901 4.3807 -0.711591 -4.4863 4.0596 -0.0472958 -0.254357 -0.00159193 4.17848 -1.02486 0.046356 -2.18731 -23.0365 -23.8424 -1.27155 -17.465 -0.237699 0.130807 25.9118 -2.63293 -0.529163 -17.3815 -1.19582 4.67387 -16.9159 0.0196285 0.711591 -4.4863 4.0596 1.29727e-005 -2.36819e-005 3.04026e-005 
